<?xml version="1.0" encoding="utf-8"?>
<!-- Svg Vector Icons : http://www.onlinewebfonts.com/icon -->
<!DOCTYPE svg PUBLIC "-//W3C//DTD SVG 1.1//EN" "http://www.w3.org/Graphics/SVG/1.1/DTD/svg11.dtd">
<svg version="1.1" xmlns="http://www.w3.org/2000/svg" xmlns:xlink="http://www.w3.org/1999/xlink" x="0px" y="0px" viewBox="0 0 1000 1000" enable-background="new 0 0 1000 1000" xml:space="preserve">
<metadata> Svg Vector Icons : http://www.onlinewebfonts.com/icon </metadata>
<g><path d="M990,27.7L990,27.7v0.7v1V27.7L990,27.7z"/><path d="M10.2,564.9L10.2,564.9v-1v-1.4V564.9L10.2,564.9z"/><path d="M10.2,564.9"/><path d="M945.1,585.1L945.1,585.1H35.7l-12.9,13.6l-1.9,2v0.7l-1.2,1l-1.2,2c-1.4,1.4-2.2,3.4-3.2,4.9l-0.3,0.3l-0.7,1.4l-0.7,1.9c-1,1.7-1.5,3.7-1.5,5.3l-0.7,1.4l-0.7,3.6l-0.7,4.3v3.1l0,0v2.4l0,0v2.7l0.7,4.2l0.7,4.3l0.7,0.7c0,2,0.7,3.9,1.5,5.9l0.7,1.4l0.7,2h0.3c1,1.7,1.9,3.4,3.2,5.3l1.2,1.4l1.2,1.4v0.7l1.9,2l279.8,293.7c17.3,18.2,45.6,18.2,62.9,0c17.7-18.2,17.7-47.8,0-66.1L162,678.3h783.1c24.6,0,44.9-20.9,44.9-46.4C990,606.1,969.8,585.1,945.1,585.1L945.1,585.1L945.1,585.1z"/><path d="M55,479.2L55,479.2h909.3l12.9-13.6l1.9-2v-0.7l1.2-1l1.2-2c1.4-1.4,2.2-3.4,3.2-4.9l0.3-0.3l0.7-1.4l0.7-2c1-1.7,1.5-3.7,1.5-5.3l0.7-1.4l0.7-3.6l0.7-4.3v-3.1l0,0v-2.4l0,0v-2.7l-0.7-4.2l-0.7-4.3l-0.7-0.7c0-2-0.7-3.9-1.5-5.9l-0.7-1.4l-0.7-2h-0.3c-1-1.7-1.9-3.4-3.2-5.3l-1.2-1.4l-1.2-1.4v-0.7l-1.9-2L697.6,105.8c-17.3-18.2-45.6-18.2-62.9,0c-17.7,18.2-17.7,47.8,0,66.1l203.5,214.2H55c-24.6,0-44.9,20.9-44.9,46.4C10.2,458.3,30.4,479.2,55,479.2L55,479.2L55,479.2z"/></g>
</svg>